<svg width="30" height="30" viewBox="0 0 30 30" fill="none" xmlns="http://www.w3.org/2000/svg">
<path fill-rule="evenodd" clip-rule="evenodd" d="M22.4823 6.77962C17.5096 6.22385 12.4904 6.22385 7.51771 6.77962C7.18125 6.81723 7.01922 7.21179 7.23215 7.47501L11.6284 12.9094C13.2033 14.8562 14.0625 17.2844 14.0625 19.7884V23.4L15.9375 24.775V19.7884C15.9375 17.2844 16.7967 14.8562 18.3716 12.9094L22.7678 7.47501C22.9808 7.21179 22.8187 6.81723 22.4823 6.77962ZM7.30945 4.91623C12.4206 4.34498 17.5794 4.34498 22.6905 4.91623C24.4992 5.11837 25.3702 7.23936 24.2256 8.65426L19.8293 14.0887C18.5244 15.7017 17.8125 17.7137 17.8125 19.7884V26.625C17.8125 26.9783 17.6139 27.3016 17.2988 27.4613C16.9836 27.621 16.6055 27.59 16.3206 27.381L12.5706 24.631C12.3298 24.4544 12.1875 24.1737 12.1875 23.875V19.7884C12.1875 17.7137 11.4756 15.7017 10.1707 14.0887L5.77442 8.65426C4.62981 7.23936 5.50079 5.11837 7.30945 4.91623Z" fill="white"/>
</svg>
