<svg width="150" height="150" viewBox="0 0 150 150" fill="none" xmlns="http://www.w3.org/2000/svg">
<path fill-rule="evenodd" clip-rule="evenodd" d="M72.5722 20.6377C74.0941 20.2046 75.6992 20.2042 77.2208 20.636C80.4554 21.5539 83.7198 22.4053 86.9951 23.2596C102.375 27.2709 117.995 31.3448 131.892 42.6636L138.292 47.876C140.888 49.9903 142.186 53.1199 142.188 56.25V100C142.188 102.589 140.089 104.687 137.5 104.687C134.911 104.687 132.812 102.589 132.812 100V69.1042L131.794 69.9352C126.979 73.8646 121.955 76.9159 116.805 79.3929C117.051 79.9623 117.188 80.5902 117.188 81.25V108.087C117.188 115.17 112.842 121.528 106.243 124.101L81.2431 133.847C77.2282 135.412 72.7718 135.412 68.7569 133.847L43.7569 124.101C37.1576 121.528 32.8125 115.17 32.8125 108.087V81.25C32.8125 80.5736 32.9558 79.9306 33.2136 79.3498C28.0239 76.8583 22.9608 73.7891 18.1078 69.8364L11.7081 64.624C6.51652 60.3954 6.5138 52.1058 11.7009 47.873L18.2058 42.5648C32.0023 31.3065 47.512 27.2569 62.7783 23.2709C66.0607 22.4139 69.3318 21.5598 72.5722 20.6377ZM132.812 56.2537C132.812 55.6907 132.585 55.3189 132.371 55.145L125.972 49.9326C112.5 40.625 100.496 36.52 85.2494 32.5135C81.8969 31.6325 78.4494 30.7266 74.8998 29.7224C71.3343 30.7339 67.8744 31.6441 64.5107 32.5291C49.3862 36.508 36.2077 39.9751 24.133 49.8283L17.6281 55.1365C17.4145 55.3108 17.1873 55.6832 17.1875 56.2463C17.1877 56.8093 17.4152 57.1811 17.6286 57.355L24.0283 62.5674C36.2053 72.4854 49.5041 75.98 64.7507 79.9865C68.1033 80.8675 71.5504 81.7733 75.1002 82.7776C78.6654 81.7662 82.1251 80.856 85.4886 79.9711C100.613 75.9922 113.792 72.5249 125.867 62.6717L132.372 57.3635C132.585 57.1893 132.812 56.8158 132.812 56.2537ZM87.2217 89.229C94.0955 87.4343 101.019 85.6267 107.812 83.154V108.087C107.812 111.307 105.837 114.196 102.838 115.366L77.8378 125.113C76.0128 125.824 73.9872 125.824 72.1622 125.113L47.1622 115.366C44.1626 114.196 42.1875 111.307 42.1875 108.087V83.1009C49.0548 85.6021 56.0543 87.4277 63.0048 89.2404C66.2802 90.0947 69.5446 90.9461 72.7792 91.864C74.3009 92.2958 75.906 92.2954 77.4278 91.8623C80.668 90.9402 83.9395 90.086 87.2217 89.229Z" fill="black"/>
</svg>
