<svg width="30" height="30" viewBox="0 0 30 30" fill="none" xmlns="http://www.w3.org/2000/svg">
<path fill-rule="evenodd" clip-rule="evenodd" d="M16.3846 2.86709C16.3846 2.11207 15.7647 1.5 15 1.5C14.2353 1.5 13.6154 2.11207 13.6154 2.86709V3.89241H12.8435C9.76261 3.89241 7.21266 6.25749 7.02034 9.29342L6.71433 14.124C6.59765 15.9657 5.9714 17.7405 4.90375 19.2552C3.9391 20.6237 4.79788 22.5138 6.47459 22.7125L11.1922 23.2714V24.7405C11.1922 26.8168 12.897 28.5 15 28.5C17.103 28.5 18.8078 26.8168 18.8078 24.7405V23.2714L23.5254 22.7125C25.2021 22.5138 26.0609 20.6237 25.0962 19.2552C24.0286 17.7405 23.4023 15.9657 23.2857 14.124L22.9797 9.29342C22.7873 6.25749 20.2374 3.89241 17.1565 3.89241H16.3846V2.86709ZM12.8435 5.94304C10.8593 5.94304 9.21711 7.46621 9.09325 9.42143L8.78724 14.252C8.64684 16.4682 7.89324 18.6039 6.60851 20.4266C6.53879 20.5255 6.60085 20.6621 6.72205 20.6764L11.8974 21.2896C13.9584 21.5338 16.0416 21.5338 18.1026 21.2896L23.278 20.6764C23.3991 20.6621 23.4612 20.5255 23.3915 20.4266C22.1068 18.6039 21.3532 16.4682 21.2128 14.252L20.9067 9.42143C20.7829 7.46621 19.1407 5.94304 17.1565 5.94304H12.8435ZM15 26.4494C14.0441 26.4494 13.2692 25.6843 13.2692 24.7405V23.7152H16.7308V24.7405C16.7308 25.6843 15.9559 26.4494 15 26.4494Z" fill="white"/>
</svg>
