<svg width="30" height="30" viewBox="0 0 30 30" fill="none" xmlns="http://www.w3.org/2000/svg">
<path d="M17.1533 11.274C17.1533 10.6794 16.6712 10.1974 16.0766 10.1974H7.46365C6.86905 10.1974 6.38702 10.6794 6.38702 11.274C6.38702 11.8686 6.86905 12.3506 7.46365 12.3506H16.0766C16.6712 12.3506 17.1533 11.8686 17.1533 11.274Z" fill="white"/>
<path d="M15.7178 15.5805C15.7178 14.9859 15.2357 14.5039 14.6411 14.5039H7.46365C6.86905 14.5039 6.38702 14.9859 6.38702 15.5805C6.38702 16.1751 6.86905 16.6571 7.46365 16.6571H14.6411C15.2357 16.6571 15.7178 16.1751 15.7178 15.5805Z" fill="white"/>
<path d="M16.0766 18.8104C16.6712 18.8104 17.1533 19.2924 17.1533 19.887C17.1533 20.4816 16.6712 20.9636 16.0766 20.9636H7.46365C6.86905 20.9636 6.38702 20.4816 6.38702 19.887C6.38702 19.2924 6.86905 18.8104 7.46365 18.8104H16.0766Z" fill="white"/>
<path fill-rule="evenodd" clip-rule="evenodd" d="M6.38702 28.5H25.0485C27.2287 28.5 28.9961 26.7326 28.9961 24.5524V16.6571C28.9961 16.0625 28.5141 15.5805 27.9195 15.5805H23.2541V4.37385C23.2541 2.33056 20.9446 1.14202 19.2819 2.32965L19.0306 2.50914C17.9102 3.30942 16.3926 3.30673 15.2669 2.50269C13.3952 1.16577 10.8628 1.16577 8.99112 2.50269C7.86547 3.30673 6.34784 3.30942 5.22745 2.50914L4.97617 2.32965C3.31347 1.14201 1.00391 2.33056 1.00391 4.37385V23.1169C1.00391 26.0899 3.41401 28.5 6.38702 28.5ZM10.2427 4.25486C11.3657 3.45271 12.8923 3.45271 14.0154 4.25486C15.8844 5.58991 18.4078 5.60011 20.2821 4.26131L20.5334 4.08182C20.7709 3.91216 21.1009 4.08195 21.1009 4.37385V24.5524C21.1009 25.1985 21.2561 25.8084 21.5313 26.3468H6.38702C4.60322 26.3468 3.15715 24.9007 3.15715 23.1169V4.37385C3.15715 4.08195 3.48709 3.91216 3.72462 4.08182L3.9759 4.26131C5.85022 5.60011 8.37361 5.58991 10.2427 4.25486ZM23.2541 24.5524V17.7338H26.8429V24.5524C26.8429 25.5434 26.0395 26.3468 25.0485 26.3468C24.0575 26.3468 23.2541 25.5434 23.2541 24.5524Z" fill="white"/>
</svg>
