<svg width="30" height="30" viewBox="0 0 30 30" fill="none" xmlns="http://www.w3.org/2000/svg">
<path fill-rule="evenodd" clip-rule="evenodd" d="M14.5301 27.3631H16.4699C19.7568 27.3631 21.4003 27.3631 22.7173 26.8875C24.9547 26.0795 26.7164 24.3177 27.5244 22.0804C28 20.7634 28 19.1199 28 15.833C28 13.9645 28 13.0302 27.8075 12.1686C27.4817 10.7104 26.7541 9.37263 25.707 8.30675C25.0883 7.67698 24.304 7.16928 22.7355 6.1539L22.2926 5.86722C19.9326 4.33955 18.7526 3.57572 17.4896 3.25142C16.1844 2.91627 14.8156 2.91627 13.5104 3.25142C12.2474 3.57572 11.0674 4.33955 8.70742 5.86722L8.26455 6.1539C6.69595 7.16928 5.91165 7.67698 5.29299 8.30675C4.24593 9.37263 3.51829 10.7104 3.1925 12.1686C3 13.0302 3 13.9645 3 15.833C3 19.1199 3 20.7634 3.47563 22.0804C4.28362 24.3177 6.04534 26.0795 8.28267 26.8875C9.59971 27.3631 11.2432 27.3631 14.5301 27.3631ZM17.2488 18.4343C17.2488 17.4678 16.4653 16.6843 15.4988 16.6843C14.5323 16.6843 13.7488 17.4678 13.7488 18.4343V22.0058C13.7488 22.9723 14.5323 23.7558 15.4988 23.7558C16.4653 23.7558 17.2488 22.9723 17.2488 22.0058V18.4343Z" fill="white"/>
</svg>
