<svg width="24" height="24" viewBox="0 0 24 24" fill="none" xmlns="http://www.w3.org/2000/svg">
<path d="M16.7437 8.64316C17.0854 8.26726 17.0854 7.65782 16.7437 7.28192C16.402 6.90603 15.8479 6.90603 15.5062 7.28192L12 11.1388L8.49379 7.28192C8.15207 6.90603 7.59803 6.90603 7.2563 7.28192C6.91458 7.65782 6.91458 8.26726 7.2563 8.64316L10.7625 12.5L7.25629 16.3568C6.91457 16.7327 6.91457 17.3422 7.25629 17.7181C7.59801 18.094 8.15206 18.094 8.49378 17.7181L12 13.8612L15.5062 17.7181C15.8479 18.094 16.402 18.094 16.7437 17.7181C17.0854 17.3422 17.0854 16.7327 16.7437 16.3568L13.2375 12.5L16.7437 8.64316Z" fill="white"/>
</svg>
