<svg width="30" height="30" viewBox="0 0 30 30" fill="none" xmlns="http://www.w3.org/2000/svg">
<path fill-rule="evenodd" clip-rule="evenodd" d="M15 3.43103C8.61063 3.43103 3.43103 8.61063 3.43103 15C3.43103 21.3894 8.61063 26.569 15 26.569C21.3894 26.569 26.569 21.3894 26.569 15C26.569 8.61063 21.3894 3.43103 15 3.43103ZM1.43103 15C1.43103 7.50606 7.50606 1.43103 15 1.43103C22.4939 1.43103 28.569 7.50606 28.569 15C28.569 22.4939 22.4939 28.569 15 28.569C7.50606 28.569 1.43103 22.4939 1.43103 15ZM15.6982 23.3793C15.6982 23.765 15.3856 24.0776 14.9999 24.0776C14.6143 24.0776 14.3017 23.765 14.3017 23.3793C14.3017 22.9937 14.6143 22.681 14.9999 22.681C15.3856 22.681 15.6982 22.9937 15.6982 23.3793ZM15 7.01721C12.1338 7.01721 9.81034 9.3407 9.81034 12.2069H11.8103C11.8103 10.4453 13.2384 9.01721 15 9.01721H15.1317C16.8206 9.01721 18.1897 10.3863 18.1897 12.0752V12.7918C18.1897 13.6801 17.6213 14.4687 16.7786 14.7496C15.1192 15.3027 14 16.8556 14 18.6047V20.5862H16V18.6047C16 17.7164 16.5684 16.9278 17.4111 16.6469C19.0704 16.0938 20.1897 14.5409 20.1897 12.7918V12.0752C20.1897 9.28173 17.9251 7.01721 15.1317 7.01721H15Z" fill="white"/>
</svg>
