<svg width="30" height="30" viewBox="0 0 30 30" fill="none" xmlns="http://www.w3.org/2000/svg">
<path fill-rule="evenodd" clip-rule="evenodd" d="M15.4442 4.1272C15.1398 4.04084 14.8188 4.04092 14.5144 4.12754C13.8664 4.31197 13.2121 4.48278 12.5557 4.65419C9.62609 5.41909 6.40046 6.2613 3.64116 8.51296L2.34018 9.57459C1.30276 10.4212 1.3033 12.0791 2.34163 12.9248L3.62156 13.9673C4.56713 14.7374 5.5526 15.3399 6.5625 15.8312V21.6174C6.5625 23.034 7.43153 24.3056 8.75138 24.8201L13.7514 26.7694C14.5544 27.0825 15.4456 27.0825 16.2486 26.7694L21.2486 24.8201C22.5685 24.3056 23.4375 23.034 23.4375 21.6174V15.8416C24.4407 15.3529 25.4196 14.7535 26.3588 13.987L26.5625 13.8208V20C26.5625 20.5178 26.9822 20.9375 27.5 20.9375C28.0178 20.9375 28.4375 20.5178 28.4375 20V11.25C28.4373 10.624 28.1775 9.99806 27.6584 9.57521L26.3784 8.53272C23.5991 6.26895 20.2379 5.39232 17.399 4.65191C16.744 4.48107 16.0911 4.31079 15.4442 4.1272ZM10.3739 16.0153C9.89913 15.8088 9.34681 16.0263 9.14031 16.5011C8.9338 16.9759 9.15129 17.5282 9.62609 17.7347C11.2234 18.4294 12.8769 18.9978 14.5713 19.4327C14.8666 19.5085 15.1763 19.5084 15.4717 19.4324C17.1616 18.9975 18.8101 18.429 20.4023 17.7343C20.8769 17.5272 21.0937 16.9746 20.8866 16.5C20.6796 16.0255 20.127 15.8087 19.6524 16.0157C18.1567 16.6684 16.6082 17.2029 15.0209 17.6123C13.4287 17.2028 11.8751 16.6682 10.3739 16.0153Z" fill="white"/>
</svg>
