<svg width="30" height="30" viewBox="0 0 30 30" fill="none" xmlns="http://www.w3.org/2000/svg">
<path fill-rule="evenodd" clip-rule="evenodd" d="M23.75 26.875H7.5C5.08375 26.875 3.125 24.9163 3.125 22.5V6.179C3.125 4.84456 4.4448 3.99856 5.60612 4.40175C5.77203 4.45935 5.9347 4.54245 6.08982 4.65325L6.30863 4.80954C7.39366 5.58456 8.86114 5.58113 9.94923 4.80393C11.4704 3.71737 13.5296 3.71737 15.0508 4.80393C16.1389 5.58113 17.6063 5.58456 18.6914 4.80954L18.9102 4.65325C20.1512 3.76682 21.875 4.65393 21.875 6.179V15.625H26.25C26.7678 15.625 27.1875 16.0447 27.1875 16.5625V23.4375C27.1875 25.336 25.6485 26.875 23.75 26.875ZM22.1875 17.5V23.4375C22.1875 24.3004 22.8871 25 23.75 25C24.6129 25 25.3125 24.3004 25.3125 23.4375V17.5H22.1875ZM16.875 12.1875C16.875 11.6697 16.4553 11.25 15.9375 11.25H8.4375C7.91973 11.25 7.5 11.6697 7.5 12.1875C7.5 12.7053 7.91973 13.125 8.4375 13.125H15.9375C16.4553 13.125 16.875 12.7053 16.875 12.1875ZM15.625 15.9375C15.625 15.4197 15.2053 15 14.6875 15H8.4375C7.91973 15 7.5 15.4197 7.5 15.9375C7.5 16.4553 7.91973 16.875 8.4375 16.875H14.6875C15.2053 16.875 15.625 16.4553 15.625 15.9375ZM15.9375 18.75C16.4553 18.75 16.875 19.1697 16.875 19.6875C16.875 20.2053 16.4553 20.625 15.9375 20.625H8.4375C7.91973 20.625 7.5 20.2053 7.5 19.6875C7.5 19.1697 7.91973 18.75 8.4375 18.75H15.9375Z" fill="white"/>
</svg>
