<svg width="30" height="30" viewBox="0 0 30 30" fill="none" xmlns="http://www.w3.org/2000/svg">
<path d="M10.9375 15C10.9375 12.7563 12.7564 10.9375 15 10.9375C17.2437 10.9375 19.0625 12.7563 19.0625 15C19.0625 17.2436 17.2437 19.0625 15 19.0625C12.7564 19.0625 10.9375 17.2436 10.9375 15Z" fill="white"/>
<path fill-rule="evenodd" clip-rule="evenodd" d="M14.3259 2.29812C14.6945 1.91682 15.3056 1.91682 15.6741 2.29812L18.8895 5.62498H23.4375C23.9553 5.62498 24.375 6.04471 24.375 6.56248V11.1105L27.7019 14.3259C28.0832 14.6944 28.0832 15.3056 27.7019 15.6741L24.375 18.8895V23.4375C24.375 23.9552 23.9553 24.375 23.4375 24.375H18.8895L15.6741 27.7018C15.3056 28.0831 14.6945 28.0831 14.3259 27.7018L11.1105 24.375H6.56254C6.04478 24.375 5.62504 23.9552 5.62504 23.4375V18.8895L2.29818 15.6741C1.91688 15.3056 1.91688 14.6944 2.29818 14.3259L5.62504 11.1105V6.56248C5.62504 6.04471 6.04477 5.62498 6.56254 5.62498H11.1105L14.3259 2.29812ZM15 9.06248C11.7208 9.06248 9.06253 11.7208 9.06253 15C9.06253 18.2792 11.7208 20.9375 15 20.9375C18.2792 20.9375 20.9375 18.2792 20.9375 15C20.9375 11.7208 18.2792 9.06248 15 9.06248Z" fill="white"/>
</svg>
