<svg width="289" height="143" viewBox="0 0 289 143" fill="none" xmlns="http://www.w3.org/2000/svg">
<path d="M37.017 103.407C32.4976 103.407 28.454 102.662 24.8861 101.173C21.3777 99.6237 18.5828 97.5376 16.5015 94.9163C14.4797 92.235 13.3499 89.226 13.112 85.8894H30.0596C30.2974 87.4982 31.0407 88.7494 32.2895 89.6432C33.5383 90.5369 35.0843 90.9838 36.9278 90.9838C38.3549 90.9838 39.4848 90.6862 40.3173 90.09C41.1498 89.4939 41.566 88.7196 41.566 87.7663C41.566 86.515 40.8822 85.5915 39.5145 84.9957C38.1468 84.3998 35.8871 83.7444 32.7355 83.0294C29.1676 82.3144 26.1944 81.51 23.8157 80.6163C21.4371 79.7225 19.3559 78.2628 17.5719 76.2369C15.8475 74.211 14.9852 71.4703 14.9852 68.0144C14.9852 65.0353 15.788 62.354 17.3935 59.9707C18.9991 57.5278 21.3479 55.5913 24.4401 54.1613C27.5917 52.7313 31.3678 52.0163 35.7682 52.0163C42.3093 52.0163 47.4531 53.625 51.1994 56.8425C54.9457 60.06 57.1161 64.2904 57.7108 69.5338H41.9228C41.6255 67.925 40.912 66.7035 39.7821 65.8694C38.7117 64.9757 37.2549 64.5288 35.4114 64.5288C33.9843 64.5288 32.8842 64.7969 32.1111 65.3332C31.3975 65.8694 31.0407 66.6142 31.0407 67.5675C31.0407 68.7592 31.7246 69.6828 33.0923 70.3382C34.4599 70.934 36.6602 71.5596 39.6929 72.215C43.3203 72.9896 46.3232 73.8535 48.7018 74.8069C51.1399 75.7603 53.2509 77.3094 55.0349 79.4544C56.8783 81.5398 57.8 84.3998 57.8 88.0344C57.8 90.9543 56.9377 93.5757 55.2133 95.8994C53.5482 98.2232 51.1399 100.071 47.9883 101.441C44.896 102.752 41.239 103.407 37.017 103.407ZM143.462 52.6419L130.706 102.781H111.083L104.126 72.3938L96.9006 102.781H77.3663L64.7002 52.6419H82.0937L87.7132 85.8894L95.1167 52.6419H113.848L121.519 85.9788L127.049 52.6419H143.462ZM209.358 67.21H201.509V102.781H183.937V67.21H178.496V52.6419H183.937V52.195C183.937 45.76 185.81 40.8444 189.556 37.4482C193.361 33.9923 198.803 32.2644 205.879 32.2644C207.307 32.2644 208.406 32.2942 209.18 32.3538V47.2794C208.703 47.2198 208.05 47.19 207.217 47.19C205.314 47.19 203.917 47.6369 203.025 48.5307C202.133 49.3648 201.627 50.7353 201.509 52.6419H209.358V67.21ZM248.252 87.8557V102.781H240.67C227.885 102.781 221.493 96.4357 221.493 83.7444V67.21H215.338V52.6419H221.493V40.4869H239.065V52.6419H248.163V67.21H239.065V84.0125C239.065 85.3829 239.362 86.366 239.956 86.9619C240.611 87.5578 241.682 87.8557 243.168 87.8557H248.252Z" fill="#F6664F"/>
<path d="M167.691 54.5187H154.312V100.994H167.691V54.5187Z" fill="#F6664F" stroke="#F6664F" stroke-width="4"/>
<path d="M169.921 38.8781C169.921 43.158 165.901 46.9218 160.556 46.9218C155.21 46.9218 151.19 43.158 151.19 38.8781C151.19 34.5982 155.21 30.8344 160.556 30.8344C165.901 30.8344 169.921 34.5982 169.921 38.8781Z" stroke="#F6664F" stroke-width="3"/>
<path d="M274.728 54.5187H261.349V100.994H274.728V54.5187Z" fill="#F6664F" stroke="#F6664F" stroke-width="4"/>
<path d="M276.958 38.8781C276.958 43.158 272.938 46.9218 267.593 46.9218C262.247 46.9218 258.227 43.158 258.227 38.8781C258.227 34.5982 262.247 30.8344 267.593 30.8344C272.938 30.8344 276.958 34.5982 276.958 38.8781Z" stroke="#F6664F" stroke-width="3"/>
</svg>
