<svg width="30" height="30" viewBox="0 0 30 30" fill="none" xmlns="http://www.w3.org/2000/svg">
<path fill-rule="evenodd" clip-rule="evenodd" d="M12.7441 3.28338C13.7492 1.5722 16.2508 1.57221 17.2559 3.28338L20.3341 8.52373C20.6178 9.00676 21.1082 9.33638 21.6672 9.41979L26.7787 10.1824C29.0069 10.5149 29.7884 13.2939 28.0532 14.714L24.3289 17.7621C23.8061 18.1899 23.5603 18.8648 23.6873 19.5235L24.7305 24.9356C25.1392 27.0556 22.8863 28.7027 20.9532 27.6973L15.868 25.0522C15.3247 24.7696 14.6753 24.7696 14.132 25.0522L9.04676 27.6973C7.11371 28.7027 4.86079 27.0555 5.26945 24.9355L6.3127 19.5235C6.43968 18.8648 6.19389 18.1899 5.67115 17.7621L1.94681 14.714C0.211568 13.2939 0.993134 10.5149 3.22126 10.1824L8.33278 9.41979C8.89177 9.33638 9.38218 9.00676 9.66591 8.52373L12.7441 3.28338ZM15.3223 4.39175C15.1787 4.14729 14.8213 4.1473 14.6777 4.39175L11.5995 9.6321C10.9753 10.6948 9.89643 11.4199 8.66665 11.6034L3.55513 12.3661C3.23683 12.4136 3.12518 12.8106 3.37307 13.0134L7.09741 16.0615C8.24744 17.0027 8.78819 18.4874 8.50883 19.9366L7.46558 25.3487C7.4072 25.6515 7.72904 25.8868 8.0052 25.7432L13.0905 23.0981C14.2857 22.4764 15.7143 22.4764 16.9095 23.0981L21.9948 25.7432C22.271 25.8868 22.5928 25.6515 22.5344 25.3487L21.4912 19.9366C21.2118 18.4874 21.7526 17.0027 22.9026 16.0615L26.6269 13.0134C26.8748 12.8106 26.7632 12.4136 26.4449 12.3661L21.3334 11.6034C20.1036 11.4199 19.0247 10.6948 18.4005 9.6321L15.3223 4.39175Z" fill="white"/>
</svg>
