<svg width="30" height="30" viewBox="0 0 30 30" fill="none" xmlns="http://www.w3.org/2000/svg">
<path d="M9.54545 8.43243C9.54545 7.8279 10.0339 7.33784 10.6364 7.33784H20.8182C21.4207 7.33784 21.9091 7.8279 21.9091 8.43243C21.9091 9.03696 21.4207 9.52703 20.8182 9.52703H10.6364C10.0339 9.52703 9.54545 9.03696 9.54545 8.43243Z" fill="white"/>
<path d="M10.6364 11.7162C10.0339 11.7162 9.54545 12.2063 9.54545 12.8108C9.54545 13.4153 10.0339 13.9054 10.6364 13.9054H17.9091C18.5116 13.9054 19 13.4153 19 12.8108C19 12.2063 18.5116 11.7162 17.9091 11.7162H10.6364Z" fill="white"/>
<path fill-rule="evenodd" clip-rule="evenodd" d="M9.90909 1.5C6.09331 1.5 3 4.60376 3 8.43243V23.027C3 26.0497 5.44208 28.5 8.45455 28.5H24.4545C25.8604 28.5 27 27.3565 27 25.9459V4.05405C27 2.64349 25.8604 1.5 24.4545 1.5H9.90909ZM24.8182 17.5541V4.05405C24.8182 3.85254 24.6554 3.68919 24.4545 3.68919H9.90909C7.29829 3.68919 5.18182 5.81281 5.18182 8.43243V18.6482C6.09345 17.9612 7.22661 17.5541 8.45455 17.5541H24.8182ZM24.8182 19.7432H8.45455C6.64707 19.7432 5.18182 21.2134 5.18182 23.027C5.18182 24.8406 6.64707 26.3108 8.45455 26.3108H24.4545C24.6554 26.3108 24.8182 26.1475 24.8182 25.9459V19.7432Z" fill="white"/>
</svg>
