<svg width="30" height="30" viewBox="0 0 30 30" fill="none" xmlns="http://www.w3.org/2000/svg">
<path fill-rule="evenodd" clip-rule="evenodd" d="M26.1096 3.8904C23.3253 1.10607 18.811 1.10607 16.0267 3.8904L12.5592 7.3579C12.1687 7.74842 12.1687 8.38159 12.5592 8.77211C12.9497 9.16263 13.5829 9.16263 13.9734 8.77211L17.4409 5.30461C19.4442 3.30134 22.6921 3.30134 24.6954 5.30461C26.6987 7.3079 26.6987 10.5558 24.6954 12.5591L21.2279 16.0266C20.8374 16.4171 20.8374 17.0503 21.2279 17.4408C21.6184 17.8313 22.2516 17.8313 22.6421 17.4408L26.1096 13.9733C28.8939 11.189 28.8939 6.67473 26.1096 3.8904L25.5628 4.43723L26.1096 3.8904ZM8.7721 13.9733C9.16262 13.5828 9.16262 12.9496 8.77209 12.5591C8.38156 12.1686 7.7484 12.1686 7.35788 12.5591L3.89044 16.0266L3.89043 16.0266C1.1061 18.8109 1.1061 23.3253 3.89043 26.1096C6.67476 28.8939 11.1891 28.8939 13.9734 26.1096L17.4409 22.6421C17.8314 22.2516 17.8314 21.6184 17.4409 21.2279C17.0504 20.8374 16.4172 20.8374 16.0267 21.2279L12.5592 24.6954C10.5559 26.6987 7.30793 26.6987 5.30464 24.6954C3.30137 22.6921 3.30137 19.4441 5.30465 17.4408L5.30466 17.4408L8.7721 13.9733ZM18.9869 11.9364C19.3775 11.5459 19.3775 10.9127 18.9869 10.5222C18.5964 10.1316 17.9633 10.1316 17.5727 10.5222L10.5222 17.5727C10.1317 17.9632 10.1317 18.5964 10.5222 18.9869C10.9127 19.3774 11.5459 19.3774 11.9364 18.9869L18.9869 11.9364Z" fill="white"/>
</svg>
