<svg width="5014" height="1550" viewBox="0 0 5014 1550" fill="none" xmlns="http://www.w3.org/2000/svg">
<rect width="5014" height="1550" fill="#252427"/>
<path d="M1680.61 1020.27C1645.86 1020.27 1614.77 1014.56 1587.34 1003.13C1560.36 991.246 1538.88 975.243 1522.87 955.134C1507.33 934.565 1498.64 911.482 1496.81 885.886H1627.12C1628.94 898.227 1634.66 907.826 1644.26 914.682C1653.86 921.538 1665.75 924.966 1679.92 924.966C1690.9 924.966 1699.58 922.683 1705.98 918.11C1712.38 913.537 1715.58 907.597 1715.58 900.284C1715.58 890.685 1710.33 883.6 1699.81 879.029C1689.3 874.458 1671.92 869.431 1647.69 863.946C1620.26 858.461 1597.4 852.29 1579.11 845.434C1560.82 838.577 1544.82 827.379 1531.1 811.838C1517.84 796.297 1511.21 775.272 1511.21 748.761C1511.21 725.907 1517.39 705.338 1529.73 687.054C1542.08 668.314 1560.14 653.459 1583.91 642.489C1608.14 631.519 1637.17 626.034 1671.01 626.034C1721.3 626.034 1760.85 638.375 1789.65 663.057C1818.45 687.74 1835.14 720.193 1839.71 760.416H1718.33C1716.04 748.075 1710.55 738.705 1701.87 732.306C1693.64 725.449 1682.44 722.021 1668.26 722.021C1657.29 722.021 1648.83 724.078 1642.89 728.192C1637.4 732.306 1634.66 738.019 1634.66 745.332C1634.66 754.474 1639.92 761.559 1650.43 766.587C1660.95 771.158 1677.86 775.957 1701.18 780.985C1729.07 786.927 1752.16 793.555 1770.45 800.868C1789.19 808.182 1805.42 820.066 1819.14 836.521C1833.31 852.518 1840.4 874.458 1840.4 902.341C1840.4 924.74 1833.77 944.849 1820.51 962.676C1807.71 980.502 1789.19 994.674 1764.96 1005.18C1741.19 1015.24 1713.07 1020.27 1680.61 1020.27ZM2499.02 630.833L2400.95 1015.47H2250.07L2196.58 782.356L2141.03 1015.47H1990.84L1893.45 630.833H2027.18L2070.39 885.886L2127.31 630.833H2271.33L2330.31 886.571L2372.83 630.833H2499.02ZM2629.16 595.181C2605.39 595.181 2586.18 588.782 2571.55 575.983C2557.38 562.728 2550.29 546.273 2550.29 526.618C2550.29 506.507 2557.38 489.823 2571.55 476.567C2586.18 463.312 2605.39 456.684 2629.16 456.684C2652.48 456.684 2671.22 463.312 2685.4 476.567C2700.03 489.823 2707.34 506.507 2707.34 526.618C2707.34 546.273 2700.03 562.728 2685.4 575.983C2671.22 588.782 2652.48 595.181 2629.16 595.181ZM2695.68 630.833V1015.47H2561.27V630.833H2695.68ZM3004.03 742.59H2943.68V1015.47H2808.57V742.59H2766.74V630.833H2808.57V627.405C2808.57 578.04 2822.98 540.331 2851.78 514.277C2881.04 487.766 2922.88 474.511 2977.28 474.511C2988.26 474.511 2996.72 474.739 3002.66 475.196V589.696C2999 589.238 2993.97 589.01 2987.57 589.01C2972.94 589.01 2962.19 592.438 2955.34 599.294C2948.48 605.693 2944.6 616.207 2943.68 630.833H3004.03V742.59ZM3303.07 900.969V1015.47H3244.78C3146.48 1015.47 3097.33 966.789 3097.33 869.431V742.59H3050.01V630.833H3097.33V537.588H3232.43V630.833H3302.39V742.59H3232.43V871.487C3232.43 882 3234.72 889.542 3239.29 894.113C3244.32 898.684 3252.55 900.969 3263.98 900.969H3303.07Z" fill="#F6664F"/>
<path d="M3508.27 645.231H3405.4V1001.76H3508.27V645.231Z" fill="#F6664F" stroke="#F6664F" stroke-width="4"/>
<path d="M3525.42 525.247C3525.42 558.079 3494.51 586.953 3453.41 586.953C3412.31 586.953 3381.4 558.079 3381.4 525.247C3381.4 492.414 3412.31 463.541 3453.41 463.541C3494.51 463.541 3525.42 492.414 3525.42 525.247Z" stroke="#F6664F" stroke-width="31"/>
</svg>
