<svg width="150" height="150" viewBox="0 0 150 150" fill="none" xmlns="http://www.w3.org/2000/svg">
<path d="M84.375 60.9375C84.375 58.3487 82.2763 56.25 79.6875 56.25H42.1875C39.5987 56.25 37.5 58.3487 37.5 60.9375C37.5 63.5263 39.5987 65.625 42.1875 65.625H79.6875C82.2763 65.625 84.375 63.5263 84.375 60.9375Z" fill="black"/>
<path d="M78.125 79.6875C78.125 77.0987 76.0263 75 73.4375 75H42.1875C39.5987 75 37.5 77.0987 37.5 79.6875C37.5 82.2763 39.5987 84.375 42.1875 84.375H73.4375C76.0263 84.375 78.125 82.2763 78.125 79.6875Z" fill="black"/>
<path d="M79.6875 93.75C82.2763 93.75 84.375 95.8487 84.375 98.4375C84.375 101.026 82.2763 103.125 79.6875 103.125H42.1875C39.5987 103.125 37.5 101.026 37.5 98.4375C37.5 95.8487 39.5987 93.75 42.1875 93.75H79.6875Z" fill="black"/>
<path fill-rule="evenodd" clip-rule="evenodd" d="M37.5 135.938H118.75C128.242 135.938 135.938 128.242 135.938 118.75V84.375C135.938 81.7862 133.839 79.6875 131.25 79.6875H110.938V30.895C110.938 21.9987 100.882 16.8239 93.6427 21.9948L92.5487 22.7762C87.6706 26.2605 81.063 26.2488 76.1621 22.7482C68.0129 16.9273 56.9871 16.9273 48.8379 22.7482C43.937 26.2488 37.3294 26.2605 32.4513 22.7762L31.3573 21.9948C24.1181 16.8239 14.0625 21.9987 14.0625 30.895V112.5C14.0625 125.444 24.5558 135.938 37.5 135.938ZM54.2871 30.3769C59.1765 26.8844 65.8234 26.8844 70.7129 30.3769C78.8506 36.1896 89.8372 36.234 97.9978 30.405L99.0918 29.6235C100.126 28.8848 101.562 29.6241 101.562 30.895V118.75C101.562 121.563 102.238 124.219 103.437 126.563H37.5C29.7335 126.563 23.4375 120.267 23.4375 112.5V30.895C23.4375 29.6241 24.874 28.8848 25.9082 29.6235L27.0022 30.405C35.1628 36.234 46.1494 36.1895 54.2871 30.3769ZM110.938 118.75V89.0625H126.562V118.75C126.562 123.065 123.065 126.563 118.75 126.563C114.435 126.563 110.938 123.065 110.938 118.75Z" fill="black"/>
</svg>
