<svg width="29" height="30" viewBox="0 0 29 30" fill="none" xmlns="http://www.w3.org/2000/svg">
<path fill-rule="evenodd" clip-rule="evenodd" d="M17.382 19.1636C14.1796 21.7285 9.49192 21.5266 6.52331 18.558C3.3381 15.3728 3.3381 10.2085 6.52331 7.02331C9.70852 3.8381 14.8728 3.8381 18.058 7.02331C21.0266 9.99192 21.2285 14.6796 18.6636 17.882L24.8933 24.1117C25.2472 24.4656 25.2472 25.0394 24.8933 25.3933C24.5394 25.7472 23.9656 25.7472 23.6117 25.3933L17.382 19.1636ZM7.80494 17.2764C5.32755 14.799 5.32755 10.7823 7.80494 8.30494C10.2823 5.82755 14.299 5.82755 16.7764 8.30494C19.2519 10.7805 19.2537 14.7931 16.7818 17.2709C16.78 17.2727 16.7782 17.2745 16.7763 17.2763C16.7745 17.2781 16.7727 17.28 16.7709 17.2818C14.2931 19.7537 10.2805 19.7519 7.80494 17.2764Z" fill="white"/>
</svg>
