<svg width="22" height="21" viewBox="0 0 22 21" fill="none" xmlns="http://www.w3.org/2000/svg">
<path d="M16.6065 19.1172C14.0132 20.636 10.4474 20.7921 6.85991 19.2333C3.95519 17.9804 1.54502 15.7872 0 13.2814C0.741612 13.9078 1.60681 14.4092 2.5338 14.8475C6.23865 16.608 9.94275 16.4875 12.5494 14.852C8.84133 11.9699 5.68564 8.20609 3.33732 5.13638C2.84271 4.6351 2.4719 4.00854 2.10109 3.44467C4.94391 6.07612 9.45553 9.39657 11.062 10.3368C7.66347 6.70257 4.63501 2.19176 4.75837 2.31683C10.1352 7.83041 15.1413 10.9632 15.1413 10.9632C15.3069 11.0579 15.4347 11.1367 15.5375 11.2072C15.6459 10.9278 15.7408 10.6376 15.8209 10.3368C16.6861 7.14144 15.6976 3.5072 13.5342 0.5C18.5399 3.57002 21.5067 9.33401 20.2703 14.1586C20.238 14.2887 20.203 14.4172 20.1652 14.5434C22.6369 17.6763 22.0006 21.0507 21.6917 20.4243C20.3508 17.7641 17.8686 18.5775 16.6065 19.1172Z" fill="#00A5E9"/>
</svg>
